# xmcd
#
# Track frame offsets: 
#        150
#        21700
#        41215
#        60422
#        81192
#        101670
#        120637
#        139240
#        160760
#        180972
#        201422
#        223742
#        241117
#        264657
#        286375
#        305892
#
# Disc length: 4303 seconds
#
# Revision: 2
# Processed by: cddbd v1.5PL3 Copyright (c) Steve Scherf et al.
# Submitted via: ExactAudioCopy v0.95a4
#
DISCID=f110cd10
DTITLE=????? - Delicious! The Best of Hitomi Shimatani
DYEAR=2003
DGENRE=JPop
TTITLE0=???
TTITLE1=????~papollon~
TTITLE2=??????
TTITLE3=Fantasista
TTITLE4=???????????
TTITLE5=?????
TTITLE6=????????
TTITLE7=A.S.A.P.~as soon as possible~
TTITLE8=?????????
TTITLE9=Poinsettia
TTITLE10=???????
TTITLE11=??????
TTITLE12=Perseus~?????~
TTITLE13=La Fiesta
TTITLE14=YUME??
TTITLE15=????-Song for Everybody-
EXTD=YEAR: 2003
EXTT0=
EXTT1=
EXTT2=
EXTT3=
EXTT4=
EXTT5=
EXTT6=
EXTT7=
EXTT8=
EXTT9=
EXTT10=
EXTT11=
EXTT12=
EXTT13=
EXTT14=
EXTT15=
PLAYORDER=
